<svg xmlns="http://www.w3.org/2000/svg" viewBox="0 0 156 40" fill="none">
  <rect width="156" height="40" rx="6" fill="#00AEEF"/>
  <path d="M20 10c-5.52 0-10 4.48-10 10s4.48 10 10 10 10-4.48 10-10-4.48-10-10-10zm0 17c-3.87 0-7-3.13-7-7s3.13-7 7-7 7 3.13 7 7-3.13 7-7 7z" fill="white"/>
  <path d="M20 14c-3.31 0-6 2.69-6 6h2.5c0-1.93 1.57-3.5 3.5-3.5s3.5 1.57 3.5 3.5h2.5c0-3.31-2.69-6-6-6z" fill="white"/>
  <circle cx="20" cy="22" r="2" fill="white"/>
  <text x="85" y="25" text-anchor="middle" fill="white" font-size="13" font-weight="700" font-family="Arial, Helvetica, sans-serif">Mercado Pago</text>
</svg>
